<svg width="101" height="37" viewBox="0 0 101 37" fill="none" xmlns="http://www.w3.org/2000/svg">
<g clip-path="url(#clip0_328_2576)">
<path d="M27.7082 20.838C26.7865 20.838 26.038 20.0877 26.038 19.1678V14.0381C26.038 12.229 25.4662 10.6959 24.3876 9.60285C23.3126 8.51523 21.8084 7.93985 20.039 7.93985C17.7609 7.93985 15.8941 8.88137 14.6387 10.6598C14.5882 10.732 14.5089 10.7734 14.4187 10.7734C14.3213 10.7734 14.2347 10.7229 14.186 10.64C13.1723 8.89941 11.3524 7.93985 9.06172 7.93985C7.23819 7.93985 5.66899 8.6018 4.52184 9.85537C4.46954 9.91308 4.39739 9.94555 4.32163 9.94555C4.17012 9.94555 4.05108 9.82831 4.05108 9.6768V8.41963C4.05108 8.37093 4.0114 8.33125 3.9627 8.33125H0.0883806C0.0396811 8.33125 0 8.37093 0 8.41963V24.6726C0 24.7213 0.0396811 24.761 0.0883806 24.761H3.9645C4.0132 24.761 4.05288 24.7213 4.05288 24.6726V15.3728C4.05288 13.2734 5.50305 11.8611 7.66206 11.8611C9.66415 11.8611 11.0097 13.2463 11.0097 15.3079V24.6726C11.0097 24.7213 11.0494 24.761 11.0981 24.761H14.9742C15.0229 24.761 15.0626 24.7213 15.0626 24.6726V15.3728C15.0626 13.2734 16.5001 11.8611 18.6393 11.8611C20.6739 11.8611 21.9869 13.2138 21.9869 15.3079V20.259C21.9869 23.2459 23.567 24.7592 26.6837 24.7592H27.71C27.7587 24.7592 27.7984 24.7195 27.7984 24.6708V20.9246C27.7948 20.8777 27.7551 20.838 27.7082 20.838Z" fill="#16D8B3"/>
<path d="M31.201 0C29.7544 0 28.6217 1.11829 28.6217 2.5468C28.6217 3.97532 29.7544 5.09361 31.201 5.09361C32.6475 5.09361 33.7802 3.97532 33.7802 2.5468C33.7802 1.11829 32.6475 0 31.201 0Z" fill="#16D8B3"/>
<path d="M73.1801 7.93985C68.1442 7.93985 64.3474 11.6392 64.3474 16.5452C64.3474 21.4513 68.1442 25.1506 73.1801 25.1506C78.216 25.1506 82.0127 21.4513 82.0127 16.5452C82.0127 11.6392 78.2142 7.93985 73.1801 7.93985ZM73.1801 21.2294C70.5286 21.2294 68.5284 19.2165 68.5284 16.5452C68.5284 13.8758 70.5286 11.8611 73.1801 11.8611C75.8315 11.8611 77.8318 13.874 77.8318 16.5452C77.83 19.2147 75.8315 21.2294 73.1801 21.2294Z" fill="#16D8B3"/>
<path d="M91.7998 7.93988C86.7639 7.93988 82.9672 11.6392 82.9672 16.5453C82.9672 21.4513 86.7639 25.1507 91.7998 25.1507C96.8357 25.1507 100.632 21.4513 100.632 16.5453C100.632 11.6392 96.8357 7.93988 91.7998 7.93988ZM91.7998 21.2294C89.1484 21.2294 87.1481 19.2165 87.1481 16.5453C87.1481 13.8758 89.1484 11.8611 91.7998 11.8611C94.4512 11.8611 96.4515 13.874 96.4515 16.5453C96.4515 19.2147 94.4512 21.2294 91.7998 21.2294Z" fill="#16D8B3"/>
<path d="M57.0101 7.93985C54.7321 7.93985 52.8652 8.88137 51.6099 10.6598C51.5594 10.732 51.48 10.7734 51.3898 10.7734C51.2924 10.7734 51.2059 10.7229 51.1572 10.64C50.1435 8.89941 48.3236 7.93985 46.0329 7.93985C44.2094 7.93985 42.6401 8.6018 41.493 9.85537C41.4407 9.91308 41.3686 9.94555 41.2928 9.94555C41.1413 9.94555 41.0222 9.82831 41.0222 9.6768V8.41963C41.0222 8.37093 40.9826 8.33125 40.9339 8.33125H37.0577C37.009 8.33125 36.9694 8.37093 36.9694 8.41963V24.6726C36.9694 24.7213 37.009 24.761 37.0577 24.761H40.9339C40.9826 24.761 41.0222 24.7213 41.0222 24.6726V15.3728C41.0222 13.2734 42.4724 11.8611 44.6314 11.8611C46.6335 11.8611 47.9791 13.2463 47.9791 15.3079V24.6726C47.9791 24.7213 48.0187 24.761 48.0674 24.761H51.9436C51.9923 24.761 52.0319 24.7213 52.0319 24.6726V15.3728C52.0319 13.2734 53.4695 11.8611 55.6087 11.8611C57.6432 11.8611 58.9563 13.2138 58.9563 15.3079V16.1087V20.259V24.6726C58.9563 24.7213 58.996 24.761 59.0447 24.761H63.0074V19.3482V16.9853V14.0381C63.0074 12.229 62.4356 10.6959 61.357 9.60285C60.2838 8.51523 58.7795 7.93985 57.0101 7.93985Z" fill="#16D8B3"/>
<path d="M34.4316 17.3912V12.4419C34.4316 10.3279 33.6362 8.95532 32.0688 8.33125C31.4212 8.07332 30.6457 7.93985 29.7348 7.93985H28.7085C28.6598 7.93985 28.6201 7.97953 28.6201 8.02823V11.7745C28.6201 11.8232 28.6598 11.8629 28.7085 11.8629C29.6302 11.8629 30.3787 12.6132 30.3787 13.5331V18.6628C30.3787 18.7584 30.3805 18.8522 30.3841 18.9459V24.7592H34.4352V24.4977V17.5337C34.4352 17.4868 34.4316 17.4399 34.4316 17.3912Z" fill="#16D8B3"/>
<path d="M93.0946 28.4189L91.401 26.801C91.2044 26.6135 90.9501 26.5088 90.6867 26.5088C90.6452 26.5088 90.6019 26.5125 90.5605 26.5179C90.2466 26.5575 89.9652 26.7451 89.7885 27.0301C88.2211 29.5517 85.5083 31.0577 82.5286 31.0577H82.4799C79.4822 31.0415 76.7677 29.5066 75.2165 26.9526C75.0415 26.6658 74.7638 26.4764 74.4499 26.4331C74.4048 26.4277 74.3598 26.4241 74.3129 26.4241C74.0531 26.4241 73.8024 26.5251 73.6058 26.7091L71.8941 28.3089C71.4775 28.6985 71.3891 29.3965 71.6939 29.898C73.5391 32.9372 76.3961 35.0349 79.742 35.8032C80.6276 36.0071 81.5384 36.1117 82.4511 36.1171H82.5196C86.8701 36.1171 90.8851 33.8426 93.2606 30.0332L93.275 30.0116C93.587 29.512 93.5059 28.8122 93.0946 28.4189Z" fill="#16D8B3"/>
</g>
<defs>
<clipPath id="clip0_328_2576">
<rect width="100.631" height="36.1152" fill="white"/>
</clipPath>
</defs>
</svg>
