<svg width="172" height="33" viewBox="0 0 172 33" fill="none" xmlns="http://www.w3.org/2000/svg">
<path d="M63.0771 28.4862H59.5142V6.13892H63.0771V28.4862Z" fill="white"/>
<path d="M75.7083 26.2519C74.8665 27.7743 73.4091 28.8433 71.2072 28.8433C67.7092 28.8433 65.4414 26.2195 65.4414 22.689V12.5519H69.0062V21.7145C69.0062 23.8849 70.269 25.3414 72.342 25.3414C74.3463 25.3414 75.6138 23.9804 75.7102 21.9407V12.5519H79.2417V28.4911H75.7102L75.7083 26.2519Z" fill="white"/>
<path d="M85.3271 14.5924C86.1699 13.1665 87.5624 12.2273 89.5381 12.2273C91.8698 12.2273 93.7157 13.3287 94.5575 15.3044C95.3354 13.491 96.9226 12.2273 99.3517 12.2273C102.493 12.2273 104.922 14.5924 104.922 18.1219V28.4862H101.362V19.0936C101.362 16.9241 100.098 15.6929 98.2846 15.6929C96.4388 15.6929 95.1102 16.9241 95.1102 19.0936V28.4862H91.5472V19.0936C91.5472 16.9241 90.2836 15.6929 88.4701 15.6929C86.6567 15.6929 85.393 16.8268 85.3271 18.8673V28.4862H81.7661V12.5518H85.3271V14.5924Z" fill="white"/>
<path d="M108.972 5.49096C110.235 5.49096 111.142 6.49503 111.142 7.69381C111.142 8.92408 110.235 9.89571 108.972 9.89571C108.679 9.90181 108.388 9.84935 108.115 9.74141C107.843 9.63347 107.595 9.47222 107.385 9.26711C107.176 9.062 107.009 8.81715 106.896 8.54691C106.782 8.27667 106.724 7.98647 106.724 7.69333C106.724 7.40019 106.782 7.11 106.896 6.83976C107.009 6.56952 107.176 6.32467 107.385 6.11955C107.595 5.91444 107.843 5.75319 108.115 5.64525C108.388 5.53731 108.679 5.48485 108.972 5.49096ZM110.753 28.4863H107.19V12.5519H110.753V28.4863Z" fill="white"/>
<path d="M116.778 14.8186C117.62 13.2638 119.11 12.2273 121.248 12.2273C124.779 12.2273 127.045 14.8186 127.045 18.3815V28.4862H123.482V19.2883C123.482 17.1503 122.219 15.6929 120.114 15.6929C118.109 15.6929 116.843 17.053 116.773 19.0936V28.4862H113.21V12.5518H116.773L116.778 14.8186Z" fill="white"/>
<path d="M136.664 12.2273C141.328 12.2273 144.955 15.8227 144.955 20.5185C144.955 25.1829 141.328 28.8432 136.664 28.8432C131.968 28.8432 128.373 25.1829 128.373 20.5185C128.373 15.8227 131.968 12.2273 136.664 12.2273ZM136.664 25.3451C139.352 25.3451 141.328 23.1747 141.328 20.5185C141.328 17.8623 139.352 15.6929 136.664 15.6929C134.009 15.6929 131.968 17.8633 131.968 20.5185C131.968 23.1738 134.009 25.3451 136.664 25.3451Z" fill="white"/>
<path d="M156.583 26.2519C155.741 27.7743 154.284 28.8433 152.081 28.8433C148.584 28.8433 146.316 26.2195 146.316 22.689V12.5519H149.879V21.7145C149.879 23.8849 151.142 25.3414 153.219 25.3414C155.224 25.3414 156.49 23.9804 156.588 21.9407V12.5519H160.119V28.4911H156.588L156.583 26.2519Z" fill="white"/>
<path d="M171.256 16.4707C170.219 15.7902 168.891 15.3368 167.66 15.3368C166.3 15.3368 165.587 16.0173 165.587 16.8916C165.587 17.5721 166.008 17.9281 166.786 18.4187L169.345 19.941C171.32 21.1389 172 22.5963 172 24.1511C172 26.9037 169.9 28.8479 166.3 28.8479C164.871 28.8286 163.46 28.5198 162.154 27.9402V24.2761C162.964 24.9881 164.648 25.766 166.105 25.766C167.53 25.766 168.308 25.053 168.308 24.1138C168.308 23.4658 167.952 22.9475 166.947 22.3653L164.227 20.7428C162.575 19.7711 161.928 18.3462 161.928 16.7914C161.928 14.1361 163.932 12.2244 167.559 12.2244C168.817 12.2381 170.064 12.457 171.252 12.8724L171.256 16.4707Z" fill="white"/>
<path d="M15.2949 21.8099H1.88121C1.63421 21.8098 1.3896 21.8584 1.16137 21.9528C0.933139 22.0472 0.725749 22.1857 0.55105 22.3603C0.376352 22.5349 0.237768 22.7422 0.143217 22.9704C0.0486659 23.1986 2.10567e-07 23.4432 2.4239e-07 23.6902V26.7444C-0.00012521 26.9915 0.048448 27.2362 0.142943 27.4645C0.237438 27.6928 0.376002 27.9002 0.550713 28.0749C0.725424 28.2496 0.932856 28.3882 1.16115 28.4827C1.38945 28.5772 1.63413 28.6257 1.88121 28.6256H15.3541L18.73 25.2383L15.2949 21.8099Z" fill="#FF8F15"/>
<path d="M20.616 15.7484L11.1451 6.29938C10.7925 5.94706 10.3145 5.74915 9.81605 5.74915C9.31761 5.74915 8.83957 5.94706 8.48699 6.29938L6.32136 8.45356C6.14651 8.62811 6.00779 8.83542 5.91314 9.06364C5.81849 9.29186 5.76978 9.5365 5.76978 9.78357C5.76978 10.0306 5.81849 10.2753 5.91314 10.5035C6.00779 10.7317 6.14651 10.939 6.32136 11.1136L15.8104 20.5845H20.616V15.7484Z" fill="#FF5607"/>
<path d="M28.6523 15.3131V1.88025C28.6523 1.38158 28.4542 0.903328 28.1016 0.550713C27.749 0.198098 27.2708 2.42266e-07 26.7721 2.42266e-07H23.7179C23.4709 -0.000125138 23.2263 0.0484165 22.998 0.142852C22.7698 0.237287 22.5624 0.375765 22.3877 0.550375C22.213 0.724985 22.0744 0.932305 21.9799 1.16049C21.8853 1.38867 21.8367 1.63325 21.8367 1.88025V15.2539L25.2841 18.6947L28.6523 15.3131Z" fill="#F6412D"/>
<path d="M34.736 20.5844L44.1725 11.1135C44.5243 10.7608 44.7219 10.283 44.7219 9.7849C44.7219 9.28677 44.5243 8.80898 44.1725 8.45632L42.0088 6.29928C41.834 6.12448 41.6265 5.98582 41.3982 5.89122C41.1698 5.79662 40.925 5.74792 40.6778 5.74792C40.4306 5.74792 40.1859 5.79662 39.9575 5.89122C39.7291 5.98582 39.5216 6.12448 39.3469 6.29928L29.874 15.8027V20.5844H34.736Z" fill="#FFC100"/>
<path d="M17.092 28.6276L20.465 25.2402L17.0291 21.8109H21.8328V16.9662L25.2812 20.4079L28.6513 17.0273V21.8109H33.5104L30.1059 25.2221L33.5132 28.6276H17.092Z" fill="#EF3416"/>
<path d="M48.6145 21.8099H35.259L31.8555 25.2268L35.2628 28.6275H48.6145C49.1132 28.6275 49.5914 28.4294 49.9441 28.0768C50.2967 27.7242 50.4948 27.2459 50.4948 26.7473V23.6931C50.4951 23.4459 50.4468 23.2011 50.3525 22.9726C50.2581 22.7442 50.1197 22.5366 49.9451 22.3617C49.7704 22.1868 49.563 22.048 49.3347 21.9533C49.1064 21.8587 48.8617 21.8099 48.6145 21.8099Z" fill="#FFEC19"/>
<path d="M25.2641 29.8626C25.482 29.8624 25.695 29.9268 25.8763 30.0477C26.0575 30.1687 26.1988 30.3406 26.2824 30.5418C26.3659 30.7431 26.3878 30.9646 26.3454 31.1783C26.303 31.392 26.1982 31.5884 26.0442 31.7425C25.8902 31.8966 25.694 32.0016 25.4803 32.0442C25.2666 32.0868 25.0451 32.065 24.8438 31.9817C24.6425 31.8983 24.4704 31.7572 24.3493 31.576C24.2282 31.3949 24.1636 31.1819 24.1636 30.964C24.1623 30.8191 24.1899 30.6754 24.2448 30.5412C24.2996 30.4071 24.3806 30.2852 24.483 30.1827C24.5855 30.0802 24.7073 29.9991 24.8414 29.9441C24.9755 29.8892 25.1192 29.8614 25.2641 29.8626Z" fill="#EF3416"/>
</svg>
