<svg width="101" height="33" viewBox="0 0 101 33" fill="none" xmlns="http://www.w3.org/2000/svg">
<path d="M27 1.5H5C2.79086 1.5 1 3.29086 1 5.5V27.5C1 29.7091 2.79086 31.5 5 31.5H27C29.2091 31.5 31 29.7091 31 27.5V5.5C31 3.29086 29.2091 1.5 27 1.5Z" fill="#7E74F1"/>
<path d="M7.92005 24.1525C7.6472 23.7603 7.52143 23.2884 7.56399 22.8163C7.53113 22.2912 7.53113 21.7646 7.56399 21.2395C7.56399 20.6249 7.81049 19.6895 8.0296 18.4335L8.35827 16.3758C8.57738 15.1732 8.74172 13.9172 8.90605 12.6077C9.02912 11.7215 9.10227 10.8293 9.12516 9.93528C9.12516 9.2939 8.87866 8.97322 8.41305 8.97322C7.91788 9.02375 7.44999 9.2194 7.07099 9.53442C6.43699 10.1037 5.89249 10.761 5.45504 11.4853C5.38774 11.5997 5.29253 11.6962 5.17787 11.7661C5.0632 11.836 4.93262 11.8772 4.79771 11.8861C4.67923 11.8696 4.56694 11.8242 4.4712 11.7542C4.37546 11.6841 4.29936 11.5916 4.24993 11.4853C4.12475 11.3218 4.04886 11.1274 4.03082 10.9241C3.98973 10.7032 3.98973 10.4769 4.03082 10.256C4.15079 9.97066 4.30724 9.70129 4.49643 9.45425C5.13967 8.59114 5.93768 7.84872 6.85188 7.26288C7.6765 6.77143 8.6245 6.51243 9.59078 6.51461C9.92579 6.49476 10.2612 6.54667 10.5735 6.6667C10.8857 6.78673 11.1673 6.97197 11.3984 7.20943C11.8253 7.83124 12.0277 8.57408 11.9736 9.32063C11.9402 10.5021 11.8305 11.6803 11.6449 12.8482C12.1632 11.0829 13.1016 9.46216 14.3838 8.11805C14.8944 7.60982 15.5038 7.2062 16.1764 6.93086C16.849 6.65551 17.5711 6.514 18.3005 6.51461C18.8014 6.46875 19.3065 6.53118 19.7799 6.69747C20.2533 6.86375 20.6833 7.1298 21.0394 7.47667C21.6805 8.22152 22.0041 9.17817 21.9432 10.1491C21.9186 10.9125 21.827 11.6725 21.6693 12.4206L20.4642 18.4068C20.3423 18.9963 20.2781 19.5959 20.2725 20.1973C20.2305 20.6774 20.3774 21.1552 20.6833 21.5335C20.8351 21.6867 21.0188 21.8064 21.2219 21.8848C21.425 21.9631 21.6429 21.9983 21.861 21.9878C22.3479 21.9636 22.8159 21.7959 23.2031 21.5068C23.8042 21.0662 24.347 20.5545 24.819 19.9835C24.8825 19.8919 24.9683 19.8171 25.0686 19.7658C25.169 19.7145 25.2809 19.6883 25.3942 19.6895C25.4826 19.6876 25.57 19.7089 25.6471 19.7512C25.7242 19.7935 25.7882 19.8553 25.8324 19.9301C25.9534 20.1419 26.0104 20.3828 25.9968 20.6249C26.024 21.0952 25.8783 21.5595 25.5859 21.9344C24.9687 22.7059 24.2179 23.3661 23.3674 23.8852C22.6592 24.2837 21.8569 24.4956 21.0394 24.4999C20.018 24.5083 19.0341 24.1243 18.3005 23.4309C17.9156 23.0559 17.6109 22.61 17.404 22.1191C17.1971 21.6282 17.0922 21.1022 17.0953 20.5714C17.0574 20.0644 17.0574 19.5552 17.0953 19.0482C17.0953 18.487 17.3145 17.8189 17.4788 16.9637L18.3552 13.1154L18.5196 12.4206L18.7935 11.4853C18.7935 11.1913 18.7935 10.9241 18.7935 10.6301C18.8084 10.4358 18.782 10.2405 18.716 10.0566C18.65 9.87267 18.5459 9.704 18.41 9.56115C18.2669 9.42244 18.0952 9.31498 17.9064 9.24587C17.7175 9.17677 17.5158 9.14759 17.3145 9.16028C16.787 9.18091 16.27 9.31071 15.7978 9.54107C15.3256 9.77143 14.909 10.0971 14.5756 10.4965C13.4967 11.7823 12.6871 13.2623 12.1927 14.8525C11.3419 17.3532 10.7546 19.9321 10.4398 22.549C10.408 23.0732 10.2584 23.5841 10.0016 24.0456C9.86295 24.199 9.68867 24.3179 9.49332 24.3923C9.29797 24.4667 9.08722 24.4944 8.87866 24.4731C8.53181 24.4712 8.19514 24.3586 7.92005 24.1525Z" fill="#232E35"/>
<path d="M26.3616 27.0629C26.1167 26.7887 25.9876 26.4303 26.0016 26.0629C25.983 25.6455 26.1263 25.2371 26.4016 24.9229C26.5532 24.7793 26.7325 24.6679 26.9284 24.5957C27.1244 24.5235 27.333 24.492 27.5416 24.5029C27.919 24.4792 28.2911 24.6009 28.5816 24.8429C28.7087 24.9748 28.8064 25.1321 28.8685 25.3044C28.9305 25.4768 28.9554 25.6603 28.9416 25.8429C28.9573 26.2659 28.8147 26.6795 28.5416 27.0029C28.394 27.1477 28.2188 27.2612 28.0264 27.3368C27.834 27.4124 27.6283 27.4485 27.4216 27.4429C27.2284 27.4552 27.0346 27.4278 26.8523 27.3625C26.6701 27.2971 26.5031 27.1952 26.3616 27.0629Z" fill="#232E35"/>
<g clip-path="url(#clip0_113_17)">
<path d="M42.7031 22.8326C42.4391 22.4566 42.3213 21.996 42.3719 21.5382C42.3806 21.0169 42.4225 20.4968 42.4973 19.9809C42.5776 19.3742 42.7214 18.4556 42.9289 17.2253C42.9556 17.0601 43.066 16.386 43.26 15.2028C43.4541 14.0197 43.6213 12.7792 43.7618 11.4815C43.8765 10.6568 43.9451 9.82627 43.9675 8.99384C43.9675 8.37193 43.7417 8.0635 43.2901 8.0635C42.8178 8.11364 42.3708 8.30366 42.0056 8.60956C41.3665 9.10419 40.8079 9.69612 40.3497 10.3641C40.2832 10.477 40.1905 10.5719 40.0794 10.6406C39.9684 10.7093 39.8424 10.7497 39.7124 10.7584C39.6125 10.7546 39.515 10.7269 39.4278 10.6777C39.3405 10.6285 39.2661 10.5591 39.2107 10.4753C39.0697 10.2954 38.9936 10.0725 38.9949 9.84327C38.9938 9.61311 39.0364 9.38485 39.1203 9.1708C39.2382 8.89335 39.3899 8.63178 39.5719 8.39215C40.1724 7.5359 40.9346 6.80739 41.8149 6.24833C42.5919 5.76014 43.4884 5.49929 44.4041 5.49496C44.7248 5.47403 45.046 5.5295 45.3415 5.65687C45.637 5.78424 45.8986 5.97993 46.1051 6.2281C46.5143 6.8189 46.714 7.53137 46.6721 8.25058C46.6393 9.4163 46.5287 10.5785 46.341 11.7292C46.8475 9.99744 47.7419 8.40598 48.9552 7.07754C49.436 6.57199 50.0143 6.17082 50.6546 5.89867C51.2949 5.62652 51.9836 5.48914 52.6784 5.49496C53.1455 5.46014 53.6144 5.52803 54.0528 5.6939C54.4912 5.85978 54.8886 6.11969 55.2175 6.45563C55.8137 7.17834 56.1183 8.10072 56.0705 9.03934C56.0537 9.78451 55.9646 10.5262 55.8045 11.2539L54.5451 17.1798C54.4206 17.7651 54.3517 18.3611 54.3393 18.9596C54.3049 19.4314 54.4483 19.899 54.7408 20.2691C54.8871 20.4174 55.0628 20.5328 55.2566 20.6078C55.4503 20.6827 55.6576 20.7155 55.8648 20.7039C56.3426 20.6951 56.8057 20.536 57.1895 20.2489C57.7596 19.8087 58.2737 19.2992 58.7199 18.732C58.7856 18.6452 58.8697 18.5743 58.966 18.5245C59.0624 18.4746 59.1686 18.4471 59.2769 18.4438C59.363 18.4419 59.4479 18.464 59.5223 18.5078C59.5967 18.5515 59.6576 18.6151 59.6984 18.6916C59.813 18.8998 59.8669 19.1364 59.8539 19.3742C59.8793 19.8356 59.7405 20.2909 59.4625 20.6584C58.8762 21.4198 58.159 22.0688 57.345 22.5747C56.6754 22.9648 55.9157 23.1706 55.1422 23.1714C54.639 23.1999 54.1355 23.1215 53.6643 22.9412C53.1932 22.7609 52.765 22.4827 52.4075 22.1247C51.718 21.3598 51.3571 20.3508 51.4039 19.3186C51.4052 18.8109 51.4421 18.3041 51.5143 17.8017C51.5896 17.2657 51.715 16.5781 51.8957 15.7489L52.7186 11.9568C52.7437 11.8354 52.7939 11.6129 52.8641 11.2944C52.9344 10.9759 52.9845 10.6775 53.0247 10.3944C53.0686 10.1168 53.0904 9.83615 53.0899 9.55507C53.1083 9.16741 52.975 8.78797 52.7186 8.49833C52.581 8.36216 52.4165 8.25667 52.2359 8.18873C52.0552 8.12078 51.8623 8.09189 51.6699 8.10395C50.847 8.10395 50.024 8.54889 49.2011 9.42867C48.3782 10.3084 47.6205 11.7393 46.918 13.7113C46.1211 16.1747 45.5797 18.7146 45.3023 21.2905C45.2656 21.8036 45.122 22.3033 44.8808 22.7568C44.7495 22.911 44.5821 23.0298 44.3936 23.1022C44.2052 23.1746 44.0018 23.1984 43.802 23.1714C43.6056 23.1918 43.4072 23.1724 43.2184 23.1142C43.0297 23.056 42.8544 22.9603 42.7031 22.8326V22.8326Z" fill="white"/>
<path d="M58.6797 22.241C58.1483 21.541 57.8799 20.6741 57.922 19.7938C57.9184 18.7024 58.1784 17.6265 58.6797 16.659C59.1472 15.7115 59.836 14.8926 60.6868 14.2725C61.4642 13.693 62.4044 13.3778 63.3714 13.3725C63.4784 13.3588 63.5871 13.3675 63.6907 13.398C63.7942 13.4284 63.8905 13.48 63.9735 13.5494C64.1086 13.7365 64.198 13.953 64.2344 14.1815C64.5321 14.1239 64.8345 14.0951 65.1376 14.0955C65.8067 14.0955 66.1412 14.3382 66.1412 14.8236C66.0832 15.5208 65.9792 16.2133 65.8301 16.8966C65.5836 17.9858 65.4259 19.0934 65.3584 20.2084C65.3479 20.3904 65.4031 20.57 65.514 20.714C65.5623 20.7741 65.6235 20.8221 65.6931 20.8545C65.7627 20.887 65.8388 20.9029 65.9154 20.9011C66.2879 20.8525 66.6303 20.6692 66.8788 20.3854C67.4165 19.8704 67.9195 19.3198 68.3842 18.7371C68.4499 18.6503 68.534 18.5794 68.6303 18.5295C68.7267 18.4797 68.8329 18.4521 68.9411 18.4489C69.0272 18.447 69.1122 18.4691 69.1866 18.5128C69.261 18.5565 69.3219 18.6202 69.3626 18.6966C69.4772 18.9048 69.5312 19.1415 69.5182 19.3792C69.5476 19.8411 69.4084 20.2979 69.1268 20.6635C68.6046 21.3302 68.0029 21.9296 67.3354 22.4483C66.8238 22.8881 66.1808 23.1426 65.509 23.1713C65.0523 23.1715 64.6107 23.0064 64.2645 22.7062C63.8683 22.3695 63.5729 21.9283 63.4115 21.432C62.699 22.5949 61.8008 23.1713 60.717 23.1713C60.3291 23.1856 59.9433 23.109 59.5898 22.9476C59.2363 22.7862 58.9248 22.5443 58.6797 22.241V22.241ZM62.3176 20.5421C62.6229 20.1176 62.8273 19.628 62.9148 19.1112L63.6775 15.2989C63.0859 15.3198 62.5207 15.5508 62.0818 15.9511C61.5719 16.4089 61.175 16.9802 60.9227 17.6197C60.6328 18.3141 60.486 19.0607 60.4912 19.814C60.4648 20.1528 60.5552 20.4903 60.7471 20.7697C60.8334 20.8725 60.9423 20.9538 61.065 21.0073C61.1877 21.0608 61.321 21.0851 61.4546 21.0781C61.6301 21.0635 61.7998 21.0074 61.9498 20.9142C62.0998 20.8211 62.2258 20.6936 62.3176 20.5421Z" fill="white"/>
<path d="M74.1749 18.7472C74.1355 18.6688 74.0752 18.6031 74.0007 18.5576C73.9262 18.512 73.8405 18.4883 73.7534 18.4893C73.5839 18.5002 73.4207 18.5579 73.2817 18.6562C72.3735 19.2629 71.3749 19.9809 70.271 20.8101L70.4767 19.3792C70.7951 17.6396 71.0229 15.8844 71.1592 14.1208C71.1623 14.0275 71.1466 13.9346 71.1129 13.8477C71.0793 13.7608 71.0284 13.6816 70.9635 13.6151C70.7224 13.4593 70.4349 13.3931 70.1506 13.4281C69.7524 13.3999 69.3556 13.499 69.0166 13.7112C68.8855 13.8189 68.7778 13.9525 68.7001 14.1039C68.6224 14.2552 68.5764 14.421 68.565 14.591C68.391 16.0674 68.2605 17.1781 68.1736 17.923C68.0665 19.2107 67.916 20.5168 67.722 21.8416L67.5815 22.8983C65.4941 24.5264 64.069 25.9017 63.3214 27.014C62.6391 27.9199 62.2454 29.0129 62.1923 30.1489C62.1847 30.4631 62.2403 30.7757 62.3559 31.0677C62.4714 31.3597 62.6445 31.625 62.8647 31.8477C63.0884 32.0685 63.3537 32.2418 63.645 32.3573C63.9364 32.4728 64.2478 32.5282 64.5608 32.5202C65.8754 32.5202 66.9593 31.6977 67.8123 30.0528C68.8212 27.8984 69.5206 25.6103 69.8897 23.2573C71.4887 22.1382 72.7699 21.2601 73.7333 20.623C73.9215 20.5059 74.077 20.3423 74.1849 20.1477C74.2922 19.9154 74.3421 19.6604 74.3304 19.4045C74.3392 19.1752 74.2854 18.9478 74.1749 18.7472ZM65.9607 29.264C65.5342 30.0781 65.1428 30.4876 64.7866 30.4876C64.4303 30.4876 64.2095 30.2196 64.2095 29.6786C64.2577 28.9871 64.4976 28.3232 64.902 27.7623C65.5334 26.847 66.2922 26.028 67.155 25.3303C66.9269 26.688 66.5255 28.0102 65.9607 29.264V29.264Z" fill="white"/>
<path d="M73.3618 22.241C72.8304 21.541 72.562 20.6741 72.6042 19.7938C72.6005 18.7024 72.8606 17.6265 73.3618 16.659C73.8294 15.7115 74.5181 14.8926 75.369 14.2725C76.1464 13.693 77.0865 13.3778 78.0535 13.3725C78.1605 13.3588 78.2692 13.3675 78.3728 13.398C78.4764 13.4284 78.5726 13.48 78.6556 13.5494C78.7907 13.7365 78.8801 13.953 78.9166 14.1815C79.2142 14.1239 79.5167 14.0951 79.8198 14.0955C80.4888 14.0955 80.8233 14.3382 80.8233 14.8236C80.7653 15.5208 80.6614 16.2133 80.5122 16.8966C80.2657 17.9858 80.108 19.0934 80.0405 20.2084C80.03 20.3904 80.0853 20.57 80.1961 20.714C80.2444 20.7741 80.3057 20.8221 80.3753 20.8545C80.4448 20.887 80.5209 20.9029 80.5975 20.9011C80.9615 20.8505 81.2958 20.6713 81.5409 20.3955C82.0774 19.8794 82.5803 19.3288 83.0462 18.7472C83.1106 18.6602 83.1938 18.5891 83.2894 18.5392C83.385 18.4893 83.4905 18.4619 83.5982 18.459C83.6843 18.4571 83.7692 18.4792 83.8436 18.5229C83.918 18.5667 83.9789 18.6303 84.0197 18.7067C84.1343 18.915 84.1882 19.1516 84.1752 19.3893C84.2047 19.8512 84.0655 20.308 83.7838 20.6736C83.2616 21.3403 82.66 21.9398 81.9925 22.4584C81.4809 22.8982 80.8379 23.1528 80.166 23.1815C79.7093 23.1816 79.2677 23.0165 78.9216 22.7163C78.5253 22.3797 78.2299 21.9384 78.0686 21.4421C77.356 22.6051 76.4578 23.1815 75.374 23.1815C74.9895 23.1906 74.6081 23.1105 74.2592 22.9475C73.9103 22.7844 73.6033 22.5427 73.3618 22.241V22.241ZM76.9998 20.5421C77.3051 20.1176 77.5094 19.628 77.5969 19.1112L78.3596 15.2989C77.768 15.3198 77.2028 15.5508 76.7639 15.9511C76.254 16.4089 75.8571 16.9802 75.6048 17.6197C75.3176 18.3149 75.1709 19.0609 75.1733 19.814C75.1469 20.1528 75.2373 20.4903 75.4292 20.7697C75.5156 20.8725 75.6244 20.9538 75.7471 21.0073C75.8698 21.0608 76.0032 21.0851 76.1367 21.0781C76.3123 21.0635 76.4819 21.0074 76.6319 20.9142C76.7819 20.8211 76.9079 20.6936 76.9998 20.5421V20.5421Z" fill="white"/>
<path d="M82.8957 22.3422C82.6389 21.4841 82.5303 20.5879 82.5746 19.6927C82.5661 17.9578 82.8234 16.2318 83.3373 14.5759C83.4254 14.2187 83.6394 13.9061 83.9394 13.6961C84.2968 13.4882 84.7066 13.3898 85.1186 13.413C85.3169 13.397 85.5158 13.4336 85.6957 13.5192C85.7558 13.5639 85.803 13.6241 85.8321 13.6935C85.8613 13.7629 85.8713 13.8389 85.8612 13.9135C85.8047 14.4195 85.7005 14.919 85.5501 15.4051C85.4147 15.9562 85.3043 16.4163 85.224 16.8411C85.1274 17.3424 85.0587 17.8488 85.0182 18.3579C85.3333 17.3893 85.7791 16.4689 86.3429 15.6225C86.7714 14.9724 87.3179 14.4097 87.9537 13.9641C88.3902 13.6342 88.9141 13.4424 89.459 13.413C89.6401 13.3959 89.8227 13.4168 89.9954 13.4742C90.1681 13.5316 90.3271 13.6244 90.4626 13.7467C90.6814 14.0356 90.7868 14.3956 90.7586 14.7579C90.7021 15.5689 90.5711 16.373 90.3672 17.1596C90.2568 17.6652 90.1866 18.0293 90.1414 18.277C90.5135 17.2672 91.0199 16.313 91.6468 15.4405C92.088 14.8178 92.6432 14.2858 93.2826 13.8731C93.7345 13.5862 94.2541 13.4257 94.7879 13.4079C94.9693 13.3849 95.1535 13.404 95.3265 13.4637C95.4994 13.5234 95.6565 13.6221 95.7858 13.7524C95.9151 13.8826 96.0131 14.041 96.0724 14.2152C96.1316 14.3895 96.1505 14.5751 96.1277 14.7579C96.0939 15.4361 96.0185 16.1116 95.9019 16.7804C95.7614 17.6265 95.651 18.4253 95.5707 19.177C95.4838 20.0168 95.4419 20.8607 95.4452 21.7051C95.4827 22.1091 95.37 22.5126 95.1291 22.8377C94.9883 22.9629 94.8234 23.0576 94.6447 23.1158C94.466 23.1741 94.2774 23.1948 94.0904 23.1765C93.9081 23.1951 93.7239 23.1735 93.5506 23.1133C93.3773 23.053 93.2191 22.9556 93.0869 22.8276C92.861 22.5244 92.7522 22.1488 92.7808 21.7708C92.8165 20.8537 92.912 19.9399 93.0668 19.0354C93.1874 18.3361 93.2695 17.6305 93.3127 16.922C93.3127 16.6995 93.2374 16.5883 93.0869 16.5883C92.9113 16.5883 92.6553 16.8208 92.3292 17.2809C91.9338 17.8569 91.5975 18.4718 91.3256 19.1163C90.9893 19.8936 90.7206 20.6989 90.5228 21.5231C90.4556 21.9968 90.2841 22.4494 90.021 22.8478C89.8932 22.9675 89.7418 23.0586 89.5766 23.1152C89.4115 23.1719 89.2363 23.1927 89.0626 23.1765C88.8505 23.1781 88.6425 23.1172 88.4642 23.0013C88.2859 22.8855 88.1451 22.7196 88.059 22.5242C87.8212 22.032 87.7058 21.4888 87.7228 20.9416C87.7415 20.1778 87.8102 19.416 87.9286 18.6613C88.0339 17.7765 88.0891 17.195 88.0891 16.922C88.0891 16.6489 88.0139 16.5883 87.8633 16.5883C87.7128 16.5883 87.3967 16.836 87.0856 17.3366C86.7175 17.9397 86.4099 18.5782 86.1673 19.2427C85.8756 19.9838 85.6342 20.744 85.4448 21.518C85.3689 21.9904 85.1888 22.4396 84.9179 22.8326C84.7961 22.954 84.6495 23.0472 84.4883 23.1057C84.3271 23.1642 84.1552 23.1866 83.9846 23.1714C83.7375 23.1744 83.4965 23.0946 83.2994 22.9445C83.1022 22.7944 82.9602 22.5825 82.8957 22.3422V22.3422Z" fill="white"/>
<path d="M97.638 22.6759C97.32 22.3191 97.1542 21.8505 97.1764 21.3714C97.1384 20.8189 97.3188 20.2736 97.6781 19.8546C98.0684 19.5137 98.5619 19.3165 99.078 19.2954C99.594 19.2742 100.102 19.4304 100.518 19.7383C100.681 19.9138 100.805 20.1211 100.885 20.3472C100.964 20.5734 100.996 20.8136 100.98 21.0529C101.004 21.6098 100.812 22.1542 100.443 22.5697C100.257 22.7676 100.032 22.9236 99.7819 23.0273C99.532 23.131 99.263 23.1801 98.9928 23.1714C98.7451 23.1891 98.4965 23.1542 98.2631 23.0688C98.0297 22.9834 97.8167 22.8496 97.638 22.6759V22.6759Z" fill="white"/>
<path d="M70.3913 11.7898C71.2227 11.7898 71.8967 11.1107 71.8967 10.273C71.8967 9.43522 71.2227 8.7561 70.3913 8.7561C69.56 8.7561 68.886 9.43522 68.886 10.273C68.886 11.1107 69.56 11.7898 70.3913 11.7898Z" fill="white"/>
</g>
<defs>
<clipPath id="clip0_113_17">
<rect width="62" height="27" fill="white" transform="translate(39 5.5)"/>
</clipPath>
</defs>
</svg>
