<svg width="184" height="42" viewBox="0 0 184 42" fill="none" xmlns="http://www.w3.org/2000/svg">
<path d="M79.1435 24.9832C78.0797 28.0499 76.5005 30.3728 74.4058 31.9521C72.3111 33.5313 69.7599 34.3198 66.7567 34.3198C64.8621 34.3198 63.144 33.9926 61.6024 33.3383C60.0608 32.684 58.6675 31.7003 57.4201 30.3917C56.2339 29.1443 55.3066 27.6921 54.6358 26.0352C53.9651 24.3783 53.6309 22.6884 53.6309 20.9633C53.6309 19.191 53.9345 17.5318 54.544 15.9831C55.1513 14.4345 56.0503 13.0223 57.2365 11.742C58.5451 10.3393 60.0184 9.27782 61.6495 8.55292C63.2828 7.82803 65.0315 7.46558 66.8956 7.46558C69.8069 7.46558 72.3347 8.2705 74.4764 9.88034C76.6181 11.4902 78.1739 13.752 79.1459 16.6633H74.1304C73.3279 15.1076 72.297 13.9449 71.0331 13.173C69.7693 12.4034 68.2606 12.0174 66.5025 12.0174C64.2384 12.0174 62.3155 12.8741 60.7363 14.5828C59.157 16.2938 58.3662 18.405 58.3662 20.9162C58.3662 23.4581 59.1664 25.5763 60.7692 27.2708C62.372 28.9654 64.3655 29.8127 66.7543 29.8127C68.3571 29.8127 69.8046 29.3938 71.099 28.5535C72.3935 27.7157 73.4032 26.5248 74.1257 24.9832H79.1435Z" fill="white"/>
<path d="M104.241 33.6488V30.528C103.069 31.7448 101.766 32.665 100.325 33.2887C98.8848 33.9124 97.3479 34.2255 95.7145 34.2255C91.8923 34.2255 88.7197 32.9522 86.192 30.4009C83.6643 27.852 82.4004 24.6582 82.4004 20.8219C82.4004 19.0355 82.7158 17.341 83.3489 15.7382C83.9796 14.1354 84.881 12.7256 86.0531 11.5088C87.3311 10.1673 88.7291 9.17879 90.2472 8.53862C91.7652 7.89845 93.4951 7.57837 95.4344 7.57837C97.1761 7.57837 98.7789 7.88669 100.243 8.50332C101.707 9.11996 103.039 10.052 104.241 11.2994V8.22795H108.864V33.6488H104.241ZM87.1381 20.7772C87.1381 23.352 87.9901 25.5078 89.6917 27.2471C91.3934 28.9888 93.4786 29.8596 95.9428 29.8596C98.1928 29.8596 100.175 28.9841 101.893 27.2354C103.611 25.4867 104.47 23.4414 104.47 21.0996C104.47 18.6025 103.618 16.4654 101.916 14.6861C100.215 12.9068 98.1905 12.0172 95.8487 12.0172C93.4457 12.0172 91.391 12.8645 89.6894 14.559C87.9901 16.256 87.1381 18.3271 87.1381 20.7772Z" fill="white"/>
<path d="M118.802 33.6488H114.227V8.22795H118.524V11.1628C119.28 10.0378 120.146 9.20232 121.125 8.6563C122.104 8.11027 123.238 7.82784 124.533 7.81372V12.5962C122.483 12.7515 121.017 13.3564 120.129 14.4108C119.242 15.4675 118.8 17.1644 118.8 19.5062V33.6488H118.802Z" fill="white"/>
<path d="M148.408 33.6489V30.5281C147.235 31.7449 145.932 32.6652 144.491 33.2889C143.051 33.9125 141.514 34.2256 139.881 34.2256C136.058 34.2256 132.886 32.9523 130.358 30.401C127.83 27.8521 126.566 24.6583 126.566 20.822C126.566 19.0357 126.882 17.3411 127.515 15.7383C128.146 14.1355 129.047 12.7257 130.219 11.5089C131.497 10.1674 132.895 9.17891 134.413 8.53874C135.931 7.89857 137.661 7.57849 139.6 7.57849C141.326 7.57849 142.924 7.8868 144.397 8.50344C145.868 9.12007 147.221 10.0521 148.452 11.2995V0H153.028V33.6489H148.408ZM131.306 20.7773C131.306 23.3521 132.158 25.508 133.86 27.2472C135.562 28.9889 137.647 29.8597 140.111 29.8597C142.361 29.8597 144.343 28.9842 146.061 27.2355C147.779 25.4868 148.638 23.4415 148.638 21.0997C148.638 18.6026 147.786 16.4656 146.085 14.6863C144.383 12.907 142.359 12.0173 140.017 12.0173C137.614 12.0173 135.559 12.8646 133.858 14.5592C132.158 16.2561 131.306 18.3272 131.306 20.7773Z" fill="white"/>
<path d="M156.865 20.9609C156.865 19.158 157.169 17.4752 157.778 15.9101C158.386 14.3474 159.285 12.9399 160.471 11.6925C161.749 10.3204 163.189 9.26601 164.792 8.52699C166.395 7.78797 168.059 7.41846 169.784 7.41846C171.634 7.41846 173.347 7.75031 174.927 8.41166C176.506 9.07301 177.934 10.0521 179.212 11.3466C180.46 12.6269 181.42 14.0673 182.091 15.6677C182.762 17.2705 183.096 18.9274 183.096 20.6361C183.096 22.3777 182.783 24.0723 182.159 25.7198C181.535 27.3696 180.66 28.81 179.537 30.0409C178.243 31.4578 176.791 32.5334 175.181 33.2653C173.571 33.9973 171.855 34.3621 170.038 34.3621C168.174 34.3621 166.456 34.0279 164.884 33.3571C163.312 32.6863 161.902 31.6955 160.654 30.3869C159.468 29.1395 158.541 27.6874 157.87 26.0305C157.202 24.3783 156.865 22.686 156.865 20.9609ZM161.603 20.9162C161.603 23.458 162.408 25.5762 164.018 27.2708C165.628 28.9654 167.635 29.8126 170.038 29.8126C172.396 29.8126 174.371 28.9607 175.967 27.259C177.562 25.5574 178.358 23.4274 178.358 20.8691C178.358 18.2966 177.56 16.169 175.967 14.4909C174.371 12.8105 172.38 11.9703 169.993 11.9703C167.621 11.9703 165.628 12.8222 164.018 14.5239C162.41 16.2279 161.603 18.3578 161.603 20.9162Z" fill="white"/>
<path d="M45.6317 26.6684C45.3705 24.1195 44.2525 22.0013 42.485 20.7021C40.5504 19.2805 38.378 19.2099 37.9614 19.2099C37.1777 19.2099 36.4034 19.3276 35.6573 19.563C33.2755 20.3114 31.9904 22.1848 31.1338 23.4346C30.7289 24.0253 30.543 24.3878 30.3641 24.7408C30.2088 25.0468 30.0464 25.3645 29.6416 25.9953C28.9661 27.045 28.366 27.7863 28.0765 28.1441C26.1795 30.4906 24.1978 32.0651 23.0963 32.9077C23.8142 33.5855 24.5155 34.0562 25.1439 34.3904C25.1439 34.3904 25.6452 34.6564 26.9844 35.1789C28.213 34.1574 29.7875 32.7053 31.3409 30.7848C31.6751 30.3706 32.3717 29.5115 33.1696 28.2712C33.6897 27.4639 33.9204 27.012 34.104 26.6496C34.2546 26.3554 34.344 26.1788 34.6006 25.8023C35.276 24.8161 35.9162 23.8841 36.9141 23.5711C37.2507 23.4652 37.6037 23.4111 37.9614 23.4111C37.9732 23.4111 39.0935 23.4228 39.9996 24.0889C40.8116 24.6843 41.3153 25.727 41.4565 27.1014C41.7507 29.9752 39.2441 32.3923 38.1756 33.4255C37.8179 33.7715 34.537 36.8099 29.9593 36.8146C29.957 36.8146 29.9523 36.8146 29.9499 36.8146C29.8322 36.8146 29.7169 36.8123 29.6016 36.8099C29.5121 36.8076 29.4133 36.8028 29.3097 36.7958C29.2815 36.7934 29.2533 36.7934 29.225 36.7911C29.1403 36.7864 29.0485 36.7793 28.9543 36.7699C28.9473 36.7699 28.9402 36.7675 28.9308 36.7675C28.4248 36.7205 27.8011 36.631 27.1044 36.4545C27.0385 36.438 26.9726 36.4216 26.9091 36.4051C26.8879 36.398 26.8644 36.3933 26.8432 36.3863C26.429 36.2733 26.0924 36.1603 25.8665 36.0756C25.8688 36.0732 25.8712 36.0732 25.8735 36.0709C25.2592 35.8402 24.612 35.5437 23.9577 35.1506C22.6703 34.3763 21.703 33.4537 20.9875 32.5876C20.9475 32.5382 20.9075 32.4888 20.8675 32.4393C20.8322 32.3946 20.7945 32.3499 20.7616 32.3052C20.3568 31.7874 19.9614 31.1919 19.6107 30.5188C19.6083 30.5118 19.6036 30.5071 19.6013 30.5C19.5448 30.3894 19.4883 30.2788 19.4342 30.1658C19.4224 30.1423 19.4083 30.114 19.3989 30.0905C19.1823 29.6292 18.987 29.1373 18.8222 28.6054C18.0338 26.0588 18.0267 23.757 18.8034 21.7683C19.8508 19.0852 22.595 16.4657 23.9154 15.2065C24.0942 15.0347 24.2543 14.8841 24.3837 14.7546C24.6756 14.4699 24.9321 14.2227 25.1604 14.0038C26.3066 12.9047 27.0668 12.1798 27.481 10.7489C28.1989 8.28468 27.3775 5.29329 25.4405 3.30218C24.0919 1.91592 22.282 1.11336 20.0626 0.913305C14.3458 0.390813 9.94459 5.02969 8.06644 7.0114C-1.07717 16.6516 -0.51937 24.8255 0.626817 28.8407C1.92834 33.3972 4.59728 36.9158 8.1394 38.7469C10.1376 39.7801 12.4158 40.305 14.913 40.305C14.9247 40.305 14.9389 40.305 14.953 40.305C17.0429 40.3002 18.8646 39.879 20.3591 39.3259C19.806 38.9705 19.2412 38.5515 18.6763 38.0597C17.8855 37.3677 17.2406 36.6499 16.7134 35.965C16.158 36.0544 15.5673 36.1062 14.9436 36.1085C14.9341 36.1085 14.9247 36.1085 14.913 36.1085C13.0937 36.1085 11.4626 35.7414 10.067 35.0212C7.56278 33.7244 5.64227 31.1213 4.66083 27.6875C3.75941 24.5337 3.39932 18.0284 11.1096 9.90158C12.5053 8.4306 15.692 5.06971 19.1965 5.06971C19.3565 5.06971 19.5189 5.07677 19.6813 5.09089C20.1261 5.1309 21.4794 5.25328 22.4303 6.22766C23.3176 7.14084 23.7459 8.54592 23.4494 9.57208C23.3599 9.87804 23.2799 9.98631 22.2561 10.9677C22.0184 11.196 21.7477 11.4549 21.4441 11.7538C21.3241 11.8715 21.1805 12.008 21.0158 12.1657C19.4789 13.6343 16.2804 16.6869 14.8918 20.2361C13.7597 23.1333 13.7338 26.3648 14.8094 29.8434C15.1366 30.8954 15.5508 31.8439 16.0144 32.6959C16.5581 33.6467 17.3583 34.8353 18.5116 36.0309C18.5139 36.0332 18.5163 36.0356 18.5186 36.0379C18.6763 36.2003 18.8387 36.3651 19.0082 36.5275C19.3918 36.8923 19.7754 37.2241 20.1591 37.5277C20.3356 37.6878 20.5145 37.8502 20.691 38.0102C21.7948 38.8104 22.9998 39.4647 24.2708 39.9543C24.8168 40.1637 27.095 41.0063 29.9476 41.0063C36.3799 41.0087 40.7975 36.7322 41.0893 36.4404C44.9374 32.6041 45.514 27.984 45.6317 26.6707V26.6684Z" fill="white"/>
<path d="M28.9279 36.7627C28.2407 36.6992 27.6193 36.5792 27.1016 36.4497C27.7982 36.6262 28.4219 36.7157 28.9279 36.7627Z" fill="white"/>
<path d="M29.2218 36.7863C29.13 36.7793 29.0406 36.7746 28.9512 36.7651C29.0453 36.7722 29.1348 36.7793 29.2218 36.7863Z" fill="white"/>
<path d="M19.6097 30.5156C19.6072 30.508 19.6021 30.503 19.5996 30.4954C19.6021 30.503 19.6047 30.508 19.6097 30.5156Z" fill="white"/>
<path d="M29.5985 36.8051C29.4996 36.8028 29.4031 36.7981 29.3066 36.791C29.4102 36.7957 29.509 36.8004 29.5985 36.8051Z" fill="white"/>
<path d="M20.8663 32.4352C20.8308 32.3902 20.7953 32.3453 20.7598 32.3003C20.7929 32.3453 20.8308 32.3902 20.8663 32.4352Z" fill="white"/>
<path d="M19.432 30.1614C19.4201 30.1354 19.4083 30.1094 19.3965 30.0857C19.406 30.107 19.4201 30.1354 19.432 30.1614Z" fill="white"/>
<path d="M26.9081 36.4005C26.8868 36.3934 26.8631 36.3887 26.8418 36.3816C26.8655 36.3887 26.8868 36.3934 26.9081 36.4005Z" fill="white"/>
</svg>
