<svg width="184" height="42" viewBox="0 0 184 42" fill="none" xmlns="http://www.w3.org/2000/svg">
<path d="M79.1445 24.9832C78.0807 28.0499 76.5014 30.3728 74.4068 31.9521C72.3121 33.5313 69.7608 34.3198 66.7577 34.3198C64.8631 34.3198 63.1449 33.9926 61.6034 33.3383C60.0618 32.684 58.6685 31.7003 57.4211 30.3917C56.2349 29.1443 55.3076 27.6921 54.6368 26.0352C53.966 24.3783 53.6318 22.6884 53.6318 20.9633C53.6318 19.191 53.9354 17.5318 54.545 15.9831C55.1522 14.4345 56.0513 13.0223 57.2375 11.742C58.5461 10.3393 60.0194 9.27782 61.6504 8.55292C63.2838 7.82803 65.0325 7.46558 66.8965 7.46558C69.8079 7.46558 72.3356 8.2705 74.4774 9.88034C76.6191 11.4902 78.1748 13.752 79.1469 16.6633H74.1314C73.3288 15.1076 72.298 13.9449 71.0341 13.173C69.7702 12.4034 68.2616 12.0174 66.5035 12.0174C64.2394 12.0174 62.3165 12.8741 60.7373 14.5828C59.158 16.2938 58.3672 18.405 58.3672 20.9162C58.3672 23.4581 59.1674 25.5763 60.7702 27.2708C62.373 28.9654 64.3665 29.8127 66.7553 29.8127C68.3581 29.8127 69.8055 29.3938 71.1 28.5535C72.3945 27.7157 73.4042 26.5248 74.1267 24.9832H79.1445Z" fill="white"/>
<path d="M104.242 33.6488V30.528C103.07 31.7448 101.767 32.665 100.326 33.2887C98.8857 33.9124 97.3489 34.2255 95.7155 34.2255C91.8933 34.2255 88.7207 32.9522 86.193 30.4009C83.6652 27.852 82.4014 24.6582 82.4014 20.8219C82.4014 19.0355 82.7167 17.341 83.3499 15.7382C83.9806 14.1354 84.882 12.7256 86.0541 11.5088C87.3321 10.1673 88.7301 9.17879 90.2482 8.53862C91.7662 7.89845 93.4961 7.57837 95.4354 7.57837C97.1771 7.57837 98.7798 7.88669 100.244 8.50332C101.708 9.11996 103.04 10.052 104.242 11.2994V8.22795H108.865V33.6488H104.242ZM87.1391 20.7772C87.1391 23.352 87.9911 25.5078 89.6927 27.2471C91.3943 28.9888 93.4796 29.8596 95.9438 29.8596C98.1938 29.8596 100.175 28.9841 101.894 27.2354C103.612 25.4867 104.471 23.4414 104.471 21.0996C104.471 18.6025 103.619 16.4654 101.917 14.6861C100.216 12.9068 98.1914 12.0172 95.8496 12.0172C93.4467 12.0172 91.392 12.8645 89.6904 14.559C87.9911 16.256 87.1391 18.3271 87.1391 20.7772Z" fill="white"/>
<path d="M118.802 33.6488H114.227V8.22795H118.524V11.1628C119.28 10.0378 120.146 9.20232 121.125 8.6563C122.104 8.11027 123.238 7.82784 124.533 7.81372V12.5962C122.483 12.7515 121.017 13.3564 120.129 14.4108C119.242 15.4675 118.8 17.1644 118.8 19.5062V33.6488H118.802Z" fill="white"/>
<path d="M148.408 33.6489V30.5281C147.235 31.7449 145.932 32.6652 144.491 33.2889C143.051 33.9125 141.514 34.2256 139.881 34.2256C136.058 34.2256 132.886 32.9523 130.358 30.401C127.83 27.8521 126.566 24.6583 126.566 20.822C126.566 19.0357 126.882 17.3411 127.515 15.7383C128.146 14.1355 129.047 12.7257 130.219 11.5089C131.497 10.1674 132.895 9.17891 134.413 8.53874C135.931 7.89857 137.661 7.57849 139.6 7.57849C141.326 7.57849 142.924 7.8868 144.397 8.50344C145.868 9.12007 147.221 10.0521 148.452 11.2995V0H153.028V33.6489H148.408ZM131.306 20.7773C131.306 23.3521 132.158 25.508 133.86 27.2472C135.562 28.9889 137.647 29.8597 140.111 29.8597C142.361 29.8597 144.343 28.9842 146.061 27.2355C147.779 25.4868 148.638 23.4415 148.638 21.0997C148.638 18.6026 147.786 16.4656 146.085 14.6863C144.383 12.907 142.359 12.0173 140.017 12.0173C137.614 12.0173 135.559 12.8646 133.858 14.5592C132.158 16.2561 131.306 18.3272 131.306 20.7773Z" fill="white"/>
<path d="M156.866 20.9609C156.866 19.158 157.17 17.4752 157.779 15.9101C158.387 14.3474 159.286 12.9399 160.472 11.6925C161.75 10.3204 163.19 9.26601 164.793 8.52699C166.396 7.78797 168.06 7.41846 169.785 7.41846C171.635 7.41846 173.348 7.75031 174.927 8.41166C176.507 9.07301 177.935 10.0521 179.213 11.3466C180.461 12.6269 181.421 14.0673 182.092 15.6677C182.763 17.2705 183.097 18.9274 183.097 20.6361C183.097 22.3777 182.784 24.0723 182.16 25.7198C181.536 27.3696 180.661 28.81 179.538 30.0409C178.244 31.4578 176.791 32.5334 175.182 33.2653C173.572 33.9973 171.856 34.3621 170.039 34.3621C168.175 34.3621 166.457 34.0279 164.885 33.3571C163.313 32.6863 161.903 31.6955 160.655 30.3869C159.469 29.1395 158.542 27.6874 157.871 26.0305C157.203 24.3783 156.866 22.686 156.866 20.9609ZM161.604 20.9162C161.604 23.458 162.409 25.5762 164.019 27.2708C165.629 28.9654 167.636 29.8126 170.039 29.8126C172.397 29.8126 174.372 28.9607 175.968 27.259C177.563 25.5574 178.359 23.4274 178.359 20.8691C178.359 18.2966 177.561 16.169 175.968 14.4909C174.372 12.8105 172.381 11.9703 169.994 11.9703C167.622 11.9703 165.629 12.8222 164.019 14.5239C162.411 16.2279 161.604 18.3578 161.604 20.9162Z" fill="white"/>
<path d="M45.6317 26.6684C45.3705 24.1195 44.2525 22.0013 42.485 20.7021C40.5504 19.2805 38.378 19.2099 37.9614 19.2099C37.1777 19.2099 36.4034 19.3276 35.6573 19.563C33.2755 20.3114 31.9904 22.1848 31.1338 23.4346C30.7289 24.0253 30.543 24.3878 30.3641 24.7408C30.2088 25.0468 30.0464 25.3645 29.6416 25.9953C28.9661 27.045 28.366 27.7863 28.0765 28.1441C26.1795 30.4906 24.1978 32.0651 23.0963 32.9077C23.8142 33.5855 24.5155 34.0562 25.1439 34.3904C25.1439 34.3904 25.6452 34.6564 26.9844 35.1789C28.213 34.1574 29.7875 32.7053 31.3409 30.7848C31.6751 30.3706 32.3717 29.5115 33.1696 28.2712C33.6897 27.4639 33.9204 27.012 34.104 26.6496C34.2546 26.3554 34.344 26.1788 34.6006 25.8023C35.276 24.8161 35.9162 23.8841 36.9141 23.5711C37.2507 23.4652 37.6037 23.4111 37.9614 23.4111C37.9732 23.4111 39.0935 23.4228 39.9996 24.0889C40.8116 24.6843 41.3153 25.727 41.4565 27.1014C41.7507 29.9752 39.2441 32.3923 38.1756 33.4255C37.8179 33.7715 34.537 36.8099 29.9593 36.8146C29.957 36.8146 29.9523 36.8146 29.9499 36.8146C29.8322 36.8146 29.7169 36.8123 29.6016 36.8099C29.5121 36.8076 29.4133 36.8028 29.3097 36.7958C29.2815 36.7934 29.2533 36.7934 29.225 36.7911C29.1403 36.7864 29.0485 36.7793 28.9543 36.7699C28.9473 36.7699 28.9402 36.7675 28.9308 36.7675C28.4248 36.7205 27.8011 36.631 27.1044 36.4545C27.0385 36.438 26.9726 36.4216 26.9091 36.4051C26.8879 36.398 26.8644 36.3933 26.8432 36.3863C26.429 36.2733 26.0924 36.1603 25.8665 36.0756C25.8688 36.0732 25.8712 36.0732 25.8735 36.0709C25.2592 35.8402 24.612 35.5437 23.9577 35.1506C22.6703 34.3763 21.703 33.4537 20.9875 32.5876C20.9475 32.5382 20.9075 32.4888 20.8675 32.4393C20.8322 32.3946 20.7945 32.3499 20.7616 32.3052C20.3568 31.7874 19.9614 31.1919 19.6107 30.5188C19.6083 30.5118 19.6036 30.5071 19.6013 30.5C19.5448 30.3894 19.4883 30.2788 19.4342 30.1658C19.4224 30.1423 19.4083 30.114 19.3989 30.0905C19.1823 29.6292 18.987 29.1373 18.8222 28.6054C18.0338 26.0588 18.0267 23.757 18.8034 21.7683C19.8508 19.0852 22.595 16.4657 23.9154 15.2065C24.0942 15.0347 24.2543 14.8841 24.3837 14.7546C24.6756 14.4699 24.9321 14.2227 25.1604 14.0038C26.3066 12.9047 27.0668 12.1798 27.481 10.7489C28.1989 8.28468 27.3775 5.29329 25.4405 3.30218C24.0919 1.91592 22.282 1.11336 20.0626 0.913305C14.3458 0.390813 9.94459 5.02969 8.06644 7.0114C-1.07717 16.6516 -0.51937 24.8255 0.626817 28.8407C1.92834 33.3972 4.59728 36.9158 8.1394 38.7469C10.1376 39.7801 12.4158 40.305 14.913 40.305C14.9247 40.305 14.9389 40.305 14.953 40.305C17.0429 40.3002 18.8646 39.879 20.3591 39.3259C19.806 38.9705 19.2412 38.5515 18.6763 38.0597C17.8855 37.3677 17.2406 36.6499 16.7134 35.965C16.158 36.0544 15.5673 36.1062 14.9436 36.1085C14.9341 36.1085 14.9247 36.1085 14.913 36.1085C13.0937 36.1085 11.4626 35.7414 10.067 35.0212C7.56278 33.7244 5.64227 31.1213 4.66083 27.6875C3.75941 24.5337 3.39932 18.0284 11.1096 9.90158C12.5053 8.4306 15.692 5.06971 19.1965 5.06971C19.3565 5.06971 19.5189 5.07677 19.6813 5.09089C20.1261 5.1309 21.4794 5.25328 22.4303 6.22766C23.3176 7.14084 23.7459 8.54592 23.4494 9.57208C23.3599 9.87804 23.2799 9.98631 22.2561 10.9677C22.0184 11.196 21.7477 11.4549 21.4441 11.7538C21.3241 11.8715 21.1805 12.008 21.0158 12.1657C19.4789 13.6343 16.2804 16.6869 14.8918 20.2361C13.7597 23.1333 13.7338 26.3648 14.8094 29.8434C15.1366 30.8954 15.5508 31.8439 16.0144 32.6959C16.5581 33.6467 17.3583 34.8353 18.5116 36.0309C18.5139 36.0332 18.5163 36.0356 18.5186 36.0379C18.6763 36.2003 18.8387 36.3651 19.0082 36.5275C19.3918 36.8923 19.7754 37.2241 20.1591 37.5277C20.3356 37.6878 20.5145 37.8502 20.691 38.0102C21.7948 38.8104 22.9998 39.4647 24.2708 39.9543C24.8168 40.1637 27.095 41.0063 29.9476 41.0063C36.3799 41.0087 40.7975 36.7322 41.0893 36.4404C44.9374 32.6041 45.514 27.984 45.6317 26.6707V26.6684Z" fill="#5555DB"/>
<path d="M28.9289 36.7627C28.2417 36.6992 27.6203 36.5792 27.1025 36.4497C27.7992 36.6262 28.4229 36.7157 28.9289 36.7627Z" fill="#5555DB"/>
<path d="M29.2228 36.7863C29.131 36.7793 29.0416 36.7746 28.9521 36.7651C29.0463 36.7722 29.1357 36.7793 29.2228 36.7863Z" fill="#5555DB"/>
<path d="M19.6088 30.5156C19.6062 30.508 19.6012 30.503 19.5986 30.4954C19.6012 30.503 19.6037 30.508 19.6088 30.5156Z" fill="#5555DB"/>
<path d="M29.5995 36.8051C29.5006 36.8028 29.4041 36.7981 29.3076 36.791C29.4112 36.7957 29.51 36.8004 29.5995 36.8051Z" fill="#5555DB"/>
<path d="M20.8653 32.4352C20.8298 32.3902 20.7943 32.3453 20.7588 32.3003C20.7919 32.3453 20.8298 32.3902 20.8653 32.4352Z" fill="#5555DB"/>
<path d="M19.432 30.1614C19.4201 30.1354 19.4083 30.1094 19.3965 30.0857C19.406 30.107 19.4201 30.1354 19.432 30.1614Z" fill="#5555DB"/>
<path d="M26.9071 36.4005C26.8858 36.3934 26.8621 36.3887 26.8408 36.3816C26.8645 36.3887 26.8858 36.3934 26.9071 36.4005Z" fill="#5555DB"/>
</svg>
