<svg width="117" height="27" viewBox="0 0 117 27" fill="none" xmlns="http://www.w3.org/2000/svg">
<path d="M116.865 0H111.567L104.289 11.4166H98.848L88.9705 26.8297H94.2652L101.519 15.4574H106.962L116.865 0Z" fill="url(#paint0_linear_2017_1237)"/>
<path d="M107.251 15.4565H104.429C104.893 16.2018 105.358 16.9471 105.824 17.6924L105.816 17.7011L107.247 19.9732L111.558 26.8257H116.865L109.691 15.4577L107.251 15.4565Z" fill="url(#paint1_linear_2017_1237)"/>
<path d="M94.5692 0.0454712H89.2627L96.4371 11.4166H101.726L94.5692 0.0454712Z" fill="url(#paint2_linear_2017_1237)"/>
<path d="M13.6457 10.9345C13.5124 10.3841 13.1971 9.89487 12.751 9.5461C12.3048 9.19734 11.754 9.00949 11.1877 9.01302H5.67712C5.14065 9.03382 4.63308 9.26157 4.26087 9.64848C3.88867 10.0354 3.68077 10.5514 3.68077 11.0883C3.68077 11.6252 3.88867 12.1412 4.26087 12.5281C4.63308 12.915 5.14065 13.1428 5.67712 13.1636H12.0355C14.7755 13.1636 17.1512 15.7064 17.1512 18.3903C17.15 19.7685 16.602 21.09 15.6274 22.0645C14.6529 23.0391 13.3314 23.5871 11.9532 23.5883H5.39576C4.19465 23.5168 3.04643 23.0694 2.11358 22.3095C1.18074 21.5495 0.510517 20.5154 0.197764 19.3535L0 18.6186L3.02322 17.7995L3.22099 18.5344C3.36548 19.0916 3.69064 19.5851 4.14557 19.9378C4.6005 20.2904 5.15953 20.4823 5.73514 20.4833H11.9507C13.0805 20.4833 14.0125 19.5226 14.0125 18.3928C14.0125 17.2342 13.0805 16.2716 11.9507 16.2716H5.67712C4.29947 16.27 2.97871 15.722 2.00451 14.7479C1.0303 13.7738 0.482188 12.4532 0.480372 11.0755C0.480372 8.22259 2.82484 5.8775 5.67712 5.8775H11.1858C13.7848 5.8775 16.0163 7.6867 16.6951 10.1428L16.8642 10.8777L13.8696 11.6969L13.6457 10.9345Z" fill="url(#paint3_linear_2017_1237)"/>
<path d="M33.5792 12.5591C33.0718 11.1803 32.0954 10.024 30.8211 9.29279C29.5468 8.56159 28.0558 8.30211 26.6094 8.55981C25.163 8.81751 23.8534 9.57595 22.91 10.7023C21.9666 11.8286 21.4496 13.2509 21.4496 14.7201C21.4496 16.1893 21.9666 17.6117 22.91 18.738C23.8534 19.8643 25.163 20.6227 26.6094 20.8804C28.0558 21.1381 29.5468 20.8786 30.8211 20.1474C32.0954 19.4162 33.0718 18.26 33.5792 16.8812L36.7148 17.729C35.4433 21.4584 31.8842 24.1136 27.7312 24.1136C22.5326 24.1136 18.2666 19.9337 18.2666 14.7345C18.2666 9.56454 22.5326 5.35474 27.7312 5.35474C31.8842 5.35474 35.4433 8.01051 36.7148 11.7393L33.5792 12.5591Z" fill="url(#paint4_linear_2017_1237)"/>
<path d="M47.787 24.1277C42.5603 24.1277 38.3511 19.9186 38.3511 14.748C38.3511 9.57747 42.5615 5.36829 47.787 5.36829C53.0124 5.36829 57.2509 9.57809 57.2509 14.748C57.2509 19.9179 53.0149 24.1277 47.787 24.1277ZM47.787 8.53125C46.559 8.53705 45.3602 8.90647 44.342 9.59289C43.3237 10.2793 42.5316 11.252 42.0656 12.3882C41.5997 13.5243 41.4807 14.7731 41.7237 15.9768C41.9667 17.1805 42.5609 18.2852 43.4312 19.1516C44.3014 20.018 45.4089 20.6072 46.6137 20.8448C47.8185 21.0824 49.0667 20.9577 50.2007 20.4867C51.3348 20.0156 52.3038 19.2191 52.9857 18.1978C53.6675 17.1764 54.0315 15.976 54.0318 14.748C54.0318 13.9293 53.8701 13.1187 53.5559 12.3627C53.2417 11.6068 52.7812 10.9203 52.2009 10.3428C51.6206 9.7653 50.932 9.30815 50.1745 8.99758C49.417 8.68702 48.6056 8.52918 47.787 8.53313V8.53125Z" fill="url(#paint5_linear_2017_1237)"/>
<path d="M75.7089 5.8775V23.5908H72.5734V21.1614H72.4605C71.1891 22.9706 69.154 24.0992 66.6966 24.0992C62.4594 24.0992 59.0693 20.5962 59.0693 16.2741V5.8775H62.1768V15.7657C62.1768 18.6186 64.4651 20.9637 67.3467 20.9637C68.0313 20.9661 68.7097 20.8334 69.3431 20.5734C69.9764 20.3134 70.5523 19.931 71.0377 19.4483C71.5231 18.9655 71.9086 18.3917 72.1722 17.7599C72.4357 17.128 72.572 16.4503 72.5734 15.7657V5.8775H75.7089Z" fill="url(#paint6_linear_2017_1237)"/>
<path d="M82.4628 8.98336V18.3912C82.4628 19.8061 83.6481 20.9627 85.0886 20.9627H87.6608V23.4756C86.7903 23.9187 85.8208 24.1313 84.8448 24.093C83.8688 24.0548 82.9189 23.7669 82.0858 23.257C81.2526 22.7471 80.5642 22.0321 80.0861 21.1804C79.6079 20.3286 79.3561 19.3685 79.3547 18.3918V8.98336H78.0527V5.87716H80.5519C80.1533 5.56523 79.754 5.24644 79.3547 4.93388V2.68237H82.4622V5.87716H87.6602V8.98336H82.4628Z" fill="url(#paint7_linear_2017_1237)"/>
<defs>
<linearGradient id="paint0_linear_2017_1237" x1="90.8878" y1="26.3881" x2="113.402" y2="2.0786" gradientUnits="userSpaceOnUse">
<stop stop-color="#FF4F5E"/>
<stop offset="0.9972" stop-color="#FF6F5E"/>
</linearGradient>
<linearGradient id="paint1_linear_2017_1237" x1="105.284" y1="26.6386" x2="114.776" y2="15.8567" gradientUnits="userSpaceOnUse">
<stop stop-color="#FF4F5E"/>
<stop offset="0.9972" stop-color="#FF6F5E"/>
</linearGradient>
<linearGradient id="paint2_linear_2017_1237" x1="90.1193" y1="11.2294" x2="99.6098" y2="0.427027" gradientUnits="userSpaceOnUse">
<stop stop-color="#FF4F5E"/>
<stop offset="0.9972" stop-color="#FF6F5E"/>
</linearGradient>
<linearGradient id="paint3_linear_2017_1237" x1="1.17888" y1="23.2968" x2="16.0843" y2="8.30615" gradientUnits="userSpaceOnUse">
<stop stop-color="#FF4F5E"/>
<stop offset="0.9972" stop-color="#FF6F5E"/>
</linearGradient>
<linearGradient id="paint4_linear_2017_1237" x1="19.5346" y1="23.8048" x2="35.3189" y2="7.68392" gradientUnits="userSpaceOnUse">
<stop stop-color="#FF4F5E"/>
<stop offset="0.9972" stop-color="#FF6F5E"/>
</linearGradient>
<linearGradient id="paint5_linear_2017_1237" x1="39.6501" y1="23.819" x2="55.4223" y2="7.31662" gradientUnits="userSpaceOnUse">
<stop stop-color="#FF4F5E"/>
<stop offset="0.9972" stop-color="#FF6F5E"/>
</linearGradient>
<linearGradient id="paint6_linear_2017_1237" x1="60.2131" y1="23.7993" x2="75.5272" y2="9.27599" gradientUnits="userSpaceOnUse">
<stop stop-color="#FF4F5E"/>
<stop offset="0.9972" stop-color="#FF6F5E"/>
</linearGradient>
<linearGradient id="paint7_linear_2017_1237" x1="78.7131" y1="23.745" x2="92.5129" y2="17.315" gradientUnits="userSpaceOnUse">
<stop stop-color="#FF4F5E"/>
<stop offset="0.9972" stop-color="#FF6F5E"/>
</linearGradient>
</defs>
</svg>
