<svg width="98" height="22" viewBox="0 0 98 22" fill="none" xmlns="http://www.w3.org/2000/svg">
<path d="M61.6736 5.88849H59.2276H58.965H58.8336V6.01981V6.28246V7.84195C57.701 6.56153 56.1086 5.88849 54.2208 5.88849C50.1662 5.88849 47.2278 8.90897 47.2278 13.0785C47.2278 17.2481 50.1662 20.2686 54.2208 20.2686C56.1086 20.2686 57.701 19.5956 58.8336 18.3151V19.8746V20.1373V20.2686H58.965H59.2276H61.6736H61.9362H62.0675V20.1373V19.8746V6.26605V6.0034V5.87207H61.9362H61.6736V5.88849ZM58.3904 13.0621C58.3904 15.2126 56.8474 16.7721 54.6969 16.7721C52.5793 16.7721 50.987 15.1797 50.987 13.0621C50.987 10.9445 52.5793 9.35219 54.6969 9.35219C56.8474 9.35219 58.3904 10.9117 58.3904 13.0621Z" fill="#ED4C4C"/>
<path d="M71.9664 5.88847H68.7489V3.68878V3.42612V3.2948H68.6176H68.355H65.4658H65.2032H65.0718V3.42612V3.68878V5.88847H63.578H63.3154H63.2004V6.0198V6.28245V8.87612V9.13877V9.2701H63.3318H63.5944H65.0882V15.5409C65.0882 17.2809 65.63 18.5614 66.7298 19.3493C67.5342 19.9403 68.634 20.2522 69.9637 20.2522C70.5875 20.2522 71.2934 20.1701 72.0485 20.0388L72.2619 20.0059L72.3768 19.9895V19.8746V19.6612V17.3794V17.0675V16.9034L72.2126 16.9362L71.9007 17.0019C71.5396 17.084 71.2277 17.1168 70.9486 17.1168C70.1771 17.1168 69.619 16.9526 69.2742 16.5915C68.9295 16.2303 68.7489 15.6722 68.7489 14.8678V9.28651H71.9664H72.2291H72.3604V9.15519V8.87612V6.26603V6.00338V5.87206H72.2291H71.9664V5.88847Z" fill="#ED4C4C"/>
<path d="M81.2247 5.88842C79.698 5.88842 78.434 6.31522 77.4655 7.16884V0.832394V0.586159V0.454834H77.3178H77.0551H74.1659H73.9033H73.772V0.586159V0.832394V19.8581V20.1208V20.2521H73.9033H74.1659H77.0551H77.3178H77.4491V20.1208V19.8581V13.3575C77.4491 12.0279 77.7281 11.0265 78.2699 10.3371C78.7952 9.68043 79.5667 9.35212 80.5681 9.35212C82.3574 9.35212 83.3915 10.5997 83.3915 12.7666V19.8581V20.1208V20.2521H83.5229H83.7855H86.6747H86.9373H87.0687V20.1208V19.8581V12.6353C87.0687 10.534 86.5598 8.85965 85.5584 7.69414C84.5242 6.51221 83.0304 5.88842 81.2247 5.88842Z" fill="#ED4C4C"/>
<path d="M97.5253 6.08547L97.3284 6.03623C96.8851 5.93773 96.4912 5.88849 96.0972 5.88849C94.2258 5.88849 92.7812 6.72568 91.7799 8.38367V6.26605V6.0034V5.87207H91.6485H91.3859H89.1205H88.8579H88.7266V6.0034V6.26605V19.8582V20.1209V20.2522H88.8579H89.1205H92.0097H92.2723H92.4037V20.1209V19.8582V14.0635C92.4037 10.8953 94.4228 9.18803 96.327 9.18803C96.5732 9.18803 96.8359 9.22086 97.1314 9.28653L97.4433 9.3686L97.6074 9.40144V9.23728V8.90897V6.41379V6.2168V6.11831L97.5253 6.08547Z" fill="#ED4C4C"/>
<path d="M45.9967 15.2947V12.4712V10.3536V10.0909V9.95962H45.8654H45.6027H43.0747H36.8532H35.6877H35.425H35.2937V10.0909V10.3536V12.8816V13.1443V13.2756H35.425H35.6877H41.745C41.0228 16.0662 38.4291 16.6572 36.3607 16.6572C32.8642 16.6572 30.6152 14.1292 30.6152 10.2059C30.6152 6.43025 32.8149 4.08282 36.3607 4.08282C39.0365 4.08282 40.9407 5.24833 41.6958 7.38236L41.7615 7.54652L41.7943 7.6286H41.8928H42.0734H45.4057H45.734H45.8982L45.8654 7.46444L45.7997 7.15254C44.8148 2.88447 41.3839 0.454956 36.3771 0.454956C33.4387 0.454956 30.9764 1.35782 29.2527 3.08146C27.5291 4.8051 26.6262 7.25104 26.6262 10.1894C26.6262 13.2263 27.5127 15.7543 29.2035 17.5272C30.8943 19.3001 33.3074 20.2522 36.1965 20.2522C39.0036 20.2522 41.1869 19.3822 42.7136 17.6421V19.8583V20.1209V20.2522H42.8449H43.1075H45.6356H45.8982H46.0295V20.1209V19.8583V15.2947" fill="#ED4C4C"/>
<path d="M20.6509 5.90479C20.6509 5.88837 20.6509 5.74063 20.6509 5.72422C20.6509 5.7078 20.6509 5.56006 20.6509 5.52723C20.6509 5.33024 20.6181 4.88702 20.3554 4.42738C20.1584 4.09907 19.8958 3.82 19.551 3.62301L13.6414 0.208556C12.9027 -0.218251 11.9506 0.0279835 11.5074 0.783104L10.6702 2.29334C10.5224 2.55599 10.1613 2.55599 10.0135 2.29334L9.14352 0.799519C8.71671 0.0608149 7.7646 -0.201836 7.00948 0.224971L1.09985 3.63943C0.476054 4.00057 0.0656626 4.64078 0 5.36307V5.46157V5.74063C0 6.52858 0.426807 7.23446 1.09985 7.62843L1.28042 7.72693L9.2256 3.14696C9.89864 2.75298 10.7358 2.75298 11.4253 3.14696L19.3705 7.74334L19.5675 7.62843C19.6988 7.54635 19.8958 7.41503 20.0763 7.23446C20.2077 7.08672 20.3882 6.87331 20.5032 6.56141C20.6016 6.31518 20.6509 6.06895 20.6509 5.90479Z" fill="#ED4C4C"/>
<path d="M19.5675 7.62864L19.3705 7.74355C19.3048 7.77638 19.2391 7.80921 19.1899 7.85846L13.1982 11.3057C12.6401 11.6341 12.1804 12.0937 11.8521 12.6518L10.6373 14.753C10.4896 14.9993 10.1449 14.9993 9.99713 14.753L8.81521 12.6518C8.48689 12.0937 8.02726 11.6341 7.46912 11.3057L1.29684 7.74355L1.11626 7.64506C0.426807 7.25108 0.0164157 6.52879 0 5.74084V5.46178V5.36328C0 5.41253 0 5.47819 0 5.52744V14.9172C0 15.7051 0.410391 16.4274 1.09985 16.8214L9.2256 21.5163C9.89864 21.9103 10.7358 21.9103 11.4253 21.5163L19.5675 16.8214C20.2405 16.4274 20.6673 15.7051 20.6673 14.9172V10.1074V5.905C20.6016 6.62729 20.1913 7.2675 19.5675 7.62864Z" fill="#ED4C4C"/>
</svg>
