<svg width="265" height="40" viewBox="0 0 265 40" fill="none" xmlns="http://www.w3.org/2000/svg">
<path d="M62.9472 6.00394H58V33.048H62.9472V6.00394Z" fill="#E5E5E5"/>
<path d="M84.8192 6.71106C84.3373 6.22002 83.6673 5.96301 82.9835 6.00431H68.9314C67.8988 6.00431 67.5179 6.17412 66.3477 7.12867L63.3188 10.0107H83.7132V33.0484H88.7062V11.1901C88.6787 10.5247 88.3896 9.89134 87.9031 9.43701L84.8192 6.71106Z" fill="#E5E5E5"/>
<path d="M124.153 6.71108C123.611 6.23381 122.909 5.98138 122.189 6.00433H104.075C103.387 5.99515 102.726 6.24757 102.217 6.71108L99.1511 9.42328C98.6371 9.85007 98.348 10.4925 98.3618 11.1626V27.8489C98.3572 28.5326 98.6463 29.1843 99.1511 29.634L102.217 32.3049C102.717 32.7914 103.392 33.0622 104.089 33.0622H127.756V29.4367H103.359V21.6213H127.999V11.1993C127.967 10.5247 127.664 9.89137 127.159 9.44622L124.153 6.71108ZM123.593 18.2529H103.359V9.64814H123.593V18.2529Z" fill="#E5E5E5"/>
<path d="M196.222 6.71108C195.68 6.23381 194.978 5.98138 194.257 6.00433H176.158C175.465 5.99056 174.79 6.24298 174.281 6.71108L171.215 9.42328C170.701 9.85007 170.412 10.4925 170.426 11.1626V27.8489C170.421 28.5326 170.71 29.1843 171.215 29.634L174.281 32.3049C174.781 32.7914 175.456 33.0622 176.153 33.0622H199.819V29.4367H175.428V21.6213H200.076V11.1993C200.044 10.5247 199.741 9.89137 199.237 9.44622L196.222 6.71108ZM195.671 18.2529H175.433V9.64814H195.671V18.2529Z" fill="#E5E5E5"/>
<path d="M214.927 6.00432H209.98V33.0484H214.927V6.00432Z" fill="#E5E5E5"/>
<path d="M218.08 7.09195L215.253 10.1208H228.208V6.00432H220.407C219.397 6.00432 219.03 6.12363 218.08 7.09195Z" fill="#E5E5E5"/>
<path d="M264.968 6.00432H259.975V33.0484H264.968V6.00432Z" fill="white"/>
<path d="M259.603 10.0107L256.606 7.18373C255.509 6.27966 255.064 6.08232 253.986 6.08232H239.975C239.245 6.07314 238.538 6.32097 237.974 6.78907L235.055 9.51504C234.55 9.96478 234.248 10.5981 234.215 11.2727V27.8396C234.211 28.528 234.514 29.1797 235.041 29.6203L237.988 32.2912C238.529 32.7776 239.236 33.03 239.961 32.9979H253.949C254.995 32.9979 255.468 32.8006 256.583 31.8827L259.529 29.0558H239.268V9.98312L259.603 10.0107Z" fill="white"/>
<path d="M264.968 6.00432H259.975V33.0484H264.968V6.00432Z" fill="#E5E5E5"/>
<path d="M259.603 10.0107L256.606 7.18373C255.509 6.27966 255.064 6.08232 253.986 6.08232H239.975C239.245 6.07314 238.538 6.32097 237.974 6.78907L235.055 9.51504C234.55 9.96478 234.248 10.5981 234.215 11.2727V27.8396C234.211 28.528 234.514 29.1797 235.041 29.6203L237.988 32.2912C238.529 32.7776 239.236 33.03 239.961 32.9979H253.949C254.995 32.9979 255.468 32.8006 256.583 31.8827L259.529 29.0558H239.268V9.98312L259.603 10.0107Z" fill="#E5E5E5"/>
<path d="M155.91 20.9238H153.579L154.69 19.1294L163.345 6.00432H158.145L151.009 17.3625H147.434L140.234 6.00432H135.085L142.524 17.3625H144.869L134.231 33.0438H139.417L141.445 30.0195L147.429 20.9238H150.995L159.013 33.0484H164.185L155.91 20.9238Z" fill="#E5E5E5"/>
<path d="M7.95478 21.7114L12.0143 17.6518L18.3946 11.2716C20.2258 9.44031 23.1969 9.44031 25.0281 11.2716L30.4637 16.7071C32.7981 19.0415 36.5872 19.0415 38.9216 16.7071L42.6457 12.983L29.6661 0H15.7008C14.4583 0 13.2637 0.492899 12.384 1.37258C8.256 5.50058 4.128 9.62857 0 13.7531V29.6627C0 29.6627 0 29.6627 0 29.6661L10.0393 39.7055H25.9489L7.95478 21.7114Z" fill="#D8FB01"/>
<path d="M42.6456 22.372L30.8195 34.198L23.8711 27.2496L30.6279 20.4928C33.4278 17.6929 37.9665 17.6929 40.7664 20.4928L42.6456 22.372Z" fill="#D8FB01"/>
</svg>
