<svg width="24" height="24" viewBox="0 0 24 24" fill="none" xmlns="http://www.w3.org/2000/svg">
<path d="M17.5002 8.99891C16.605 8.99853 15.7236 9.21997 14.9348 9.64344C14.8628 9.45386 14.7349 9.29068 14.5679 9.17555C14.401 9.06043 14.203 8.99882 14.0002 8.99891H10.0002C9.86887 8.99883 9.7388 9.02465 9.61744 9.07488C9.49608 9.1251 9.38582 9.19876 9.29294 9.29164C9.20007 9.38451 9.12641 9.49478 9.07618 9.61614C9.02595 9.7375 9.00014 9.86757 9.00022 9.99891V21.9989C9.00014 22.1303 9.02595 22.2603 9.07618 22.3817C9.12641 22.503 9.20006 22.6133 9.29294 22.7062C9.38581 22.7991 9.49608 22.8727 9.61744 22.9229C9.7388 22.9732 9.86887 22.999 10.0002 22.9989H14.0002C14.1316 22.999 14.2616 22.9732 14.383 22.9229C14.5043 22.8727 14.6146 22.7991 14.7075 22.7062C14.8004 22.6133 14.874 22.503 14.9242 22.3817C14.9745 22.2603 15.0003 22.1303 15.0002 21.9989V16.4989C15.0002 16.2337 15.1056 15.9793 15.2931 15.7918C15.4806 15.6043 15.735 15.4989 16.0002 15.4989C16.2654 15.4989 16.5198 15.6043 16.7073 15.7918C16.8949 15.9793 17.0002 16.2337 17.0002 16.4989V21.9989C17.0001 22.1303 17.026 22.2603 17.0762 22.3817C17.1264 22.503 17.2001 22.6133 17.2929 22.7062C17.3858 22.7991 17.4961 22.8727 17.6174 22.9229C17.7388 22.9732 17.8689 22.999 18.0002 22.9989H22.0002C22.1316 22.999 22.2616 22.9732 22.383 22.9229C22.5044 22.8727 22.6146 22.7991 22.7075 22.7062C22.8004 22.6133 22.874 22.503 22.9242 22.3817C22.9745 22.2603 23.0003 22.1303 23.0002 21.9989V14.4989C22.9984 13.0408 22.4184 11.6429 21.3873 10.6118C20.3562 9.58077 18.9583 9.00072 17.5002 8.99891ZM21.0002 20.9989H19.0002V16.4989C19.0002 15.7033 18.6841 14.9402 18.1215 14.3776C17.5589 13.815 16.7959 13.4989 16.0002 13.4989C15.2046 13.4989 14.4415 13.815 13.8789 14.3776C13.3163 14.9402 13.0002 15.7033 13.0002 16.4989V20.9989H11.0002V10.9989H13.0002V11.702C13.0003 11.9092 13.0648 12.1113 13.1847 12.2803C13.3045 12.4493 13.4739 12.5769 13.6694 12.6455C13.865 12.7141 14.077 12.7203 14.2761 12.6633C14.4753 12.6062 14.6519 12.4887 14.7815 12.327C15.2302 11.7571 15.8458 11.3415 16.5422 11.1383C17.2386 10.9351 17.9811 10.9544 18.6659 11.1936C19.3508 11.4328 19.9439 11.8799 20.3624 12.4725C20.7809 13.065 21.0039 13.7735 21.0002 14.4989V20.9989ZM7.00022 8.99891H3.00022C2.86887 8.99883 2.7388 9.02465 2.61744 9.07488C2.49608 9.1251 2.38581 9.19876 2.29294 9.29164C2.20007 9.38451 2.12641 9.49478 2.07618 9.61614C2.02595 9.7375 2.00014 9.86757 2.00022 9.99891V21.9989C2.00014 22.1303 2.02595 22.2603 2.07618 22.3817C2.12641 22.503 2.20006 22.6133 2.29294 22.7062C2.38581 22.7991 2.49608 22.8727 2.61744 22.9229C2.7388 22.9732 2.86887 22.999 3.00022 22.9989H7.00022C7.13156 22.999 7.26163 22.9732 7.38299 22.9229C7.50435 22.8727 7.61462 22.7991 7.70749 22.7062C7.80037 22.6133 7.87402 22.503 7.92425 22.3817C7.97448 22.2603 8.00029 22.1303 8.00022 21.9989V9.99891C8.00029 9.86757 7.97448 9.7375 7.92425 9.61614C7.87402 9.49478 7.80036 9.38451 7.70749 9.29164C7.61462 9.19876 7.50435 9.1251 7.38299 9.07488C7.26163 9.02465 7.13156 8.99883 7.00022 8.99891ZM6.00022 20.9989H4.00022V10.9989H6.00022V20.9989ZM5.01486 1.54191C4.57723 1.51571 4.13883 1.57881 3.72634 1.72735C3.31385 1.8759 2.93589 2.1068 2.61543 2.406C2.29498 2.70521 2.03873 3.06646 1.86227 3.46781C1.68582 3.86915 1.59284 4.3022 1.58899 4.7406C1.58515 5.17901 1.67051 5.61361 1.8399 6.01799C2.00929 6.42237 2.25916 6.78807 2.57431 7.09285C2.88947 7.39763 3.26332 7.63512 3.67314 7.79089C4.08296 7.94665 4.52018 8.01742 4.95822 7.99891H4.98654C5.42533 8.02497 5.86484 7.96129 6.27819 7.81176C6.69155 7.66223 7.07007 7.42998 7.39064 7.12922C7.7112 6.82845 7.96707 6.46548 8.14262 6.06249C8.31817 5.65949 8.4097 5.22494 8.41163 4.78537C8.41356 4.3458 8.32584 3.91046 8.15383 3.50594C7.98183 3.10142 7.72915 2.73622 7.41123 2.43266C7.09332 2.12909 6.71685 1.89353 6.30482 1.74038C5.89279 1.58723 5.45386 1.5197 5.01485 1.54191H5.01486ZM4.98655 5.99891H4.95822C4.78528 6.01991 4.60986 6.00369 4.44371 5.95134C4.27755 5.89899 4.12452 5.81171 3.99486 5.69537C3.8652 5.57903 3.76191 5.43631 3.69193 5.27678C3.62194 5.11726 3.58688 4.94461 3.58909 4.77042C3.58909 4.02432 4.14865 3.5419 5.01486 3.5419C5.18956 3.51861 5.36722 3.53303 5.53588 3.58418C5.70454 3.63534 5.86027 3.72204 5.9926 3.83845C6.12493 3.95486 6.23077 4.09828 6.303 4.25904C6.37524 4.4198 6.41218 4.59418 6.41135 4.77042C6.41135 5.51651 5.85178 5.99891 4.98655 5.99891Z" fill="#656D72"/>
</svg>
