<svg width="25" height="25" viewBox="0 0 25 25" fill="none" xmlns="http://www.w3.org/2000/svg">
<path d="M3.35449 17.5L3.504 16.7651C3.20486 16.7042 2.89868 16.8307 2.72977 17.085C2.56086 17.3393 2.56291 17.6706 2.73497 17.9227L3.35449 17.5ZM11.3545 3.5L11.3742 2.75026C11.0683 2.74222 10.7881 2.92087 10.6664 3.20166C10.5446 3.48244 10.6057 3.80903 10.8207 4.02685L11.3545 3.5ZM21.1045 12.5C21.1045 7.18571 16.7618 2.89187 11.3742 2.75026L11.3348 4.24974C15.9486 4.37102 19.6045 8.03726 19.6045 12.5H21.1045ZM11.3545 22.25C16.8956 22.25 21.1045 17.8776 21.1045 12.5H19.6045C19.6045 17.0653 16.0511 20.75 11.3545 20.75V22.25ZM2.73497 17.9227C4.54749 20.5791 7.90248 22.25 11.3545 22.25V20.75C8.34871 20.75 5.48025 19.2847 3.97401 17.0773L2.73497 17.9227ZM3.20499 18.2349C7.54605 19.118 11.2664 16.8566 13.1176 13.6399C14.9712 10.4189 15.0076 6.13357 11.8883 2.97315L10.8207 4.02685C13.3843 6.62418 13.3967 10.1476 11.8175 12.8917C10.236 15.6399 7.11497 17.4996 3.504 16.7651L3.20499 18.2349Z" fill="#232E35"/>
</svg>
